<?xml version="1.0" standalone="no"?>
<!DOCTYPE svg PUBLIC "-//W3C//DTD SVG 20010904//EN"
 "http://www.w3.org/TR/2001/REC-SVG-20010904/DTD/svg10.dtd">
<svg version="1.0" xmlns="http://www.w3.org/2000/svg"
 width="1024.000000pt" height="1024.000000pt" viewBox="0 0 1024.000000 1024.000000"
 preserveAspectRatio="xMidYMid meet">
<metadata>
Created by potrace 1.14, written by Peter Selinger 2001-2017
</metadata>
<g transform="translate(0.000000,1024.000000) scale(0.100000,-0.100000)"
fill="#000000" stroke="none">
<path d="M0 5120 l0 -5120 5120 0 5120 0 0 5120 0 5120 -5120 0 -5120 0 0
-5120z m5280 4680 l0 -150 295 0 295 0 0 -145 0 -145 -295 0 -295 0 0 -145 0
-145 440 0 440 0 0 -295 0 -295 -440 0 -440 0 0 -145 0 -145 440 0 440 0 0
-295 0 -295 440 0 440 0 0 -295 0 -295 295 0 295 0 0 -145 0 -145 -295 0 -295
0 0 -295 0 -295 -145 0 -145 0 0 -145 0 -145 -145 0 -145 0 0 -150 0 -150 145
0 145 0 0 -145 0 -145 145 0 145 0 0 -145 0 -145 150 0 150 0 0 145 0 145 145
0 145 0 0 145 0 145 145 0 145 0 0 -290 0 -290 150 0 150 0 0 145 0 145 145 0
145 0 0 -295 0 -295 150 0 150 0 0 -585 0 -585 290 0 290 0 0 -735 0 -735
-145 0 -145 0 0 -295 0 -295 -145 0 -145 0 0 295 0 295 145 0 145 0 0 150 0
150 -440 0 -440 0 0 145 0 145 -440 0 -440 0 0 145 0 145 -590 0 -590 0 0
-145 0 -145 -145 0 -145 0 0 145 0 145 145 0 145 0 0 150 0 150 -440 0 -440 0
0 -1175 0 -1175 590 0 590 0 0 145 0 145 440 0 440 0 0 -145 0 -145 585 0 585
0 0 145 0 145 440 0 440 0 0 -145 0 -145 295 0 295 0 0 -295 0 -295 -145 0
-145 0 0 145 0 145 -150 0 -150 0 0 150 0 150 -290 0 -290 0 0 -150 0 -150
-295 0 -295 0 0 -145 0 -145 -295 0 -295 0 0 145 0 145 -295 0 -295 0 0 150 0
150 -290 0 -290 0 0 -150 0 -150 -150 0 -150 0 0 -145 0 -145 -290 0 -290 0 0
145 0 145 -295 0 -295 0 0 150 0 150 -295 0 -295 0 0 -150 0 -150 -290 0 -290
0 0 -145 0 -145 -150 0 -150 0 0 145 0 145 -295 0 -295 0 0 150 0 150 -290 0
-290 0 0 -150 0 -150 -295 0 -295 0 0 -145 0 -145 -295 0 -295 0 0 145 0 145
-145 0 -145 0 0 150 0 150 -145 0 -145 0 0 145 0 145 145 0 145 0 0 -145 0
-145 735 0 735 0 0 145 0 145 290 0 290 0 0 -145 0 -145 735 0 735 0 0 145 0
145 295 0 295 0 0 1030 0 1030 -295 0 -295 0 0 -150 0 -150 150 0 150 0 0
-145 0 -145 -150 0 -150 0 0 145 0 145 -585 0 -585 0 0 -145 0 -145 -590 0
-590 0 0 -145 0 -145 -290 0 -290 0 0 -150 0 -150 145 0 145 0 0 -440 0 -440
-145 0 -145 0 0 295 0 295 -150 0 -150 0 0 585 0 585 -145 0 -145 0 0 150 0
150 145 0 145 0 0 145 0 145 295 0 295 0 0 585 0 585 145 0 145 0 0 295 0 295
150 0 150 0 0 -145 0 -145 145 0 145 0 0 290 0 290 145 0 145 0 0 -290 0 -290
150 0 150 0 0 145 0 145 295 0 295 0 0 295 0 295 -150 0 -150 0 0 440 0 440
-295 0 -295 0 0 145 0 145 295 0 295 0 0 295 0 295 440 0 440 0 0 295 0 295
295 0 295 0 0 145 0 145 -295 0 -295 0 0 295 0 295 295 0 295 0 0 145 0 145
-145 0 -145 0 0 145 0 145 145 0 145 0 0 150 0 150 145 0 145 0 0 -150z
m-1170 -7335 l0 -145 -145 0 -145 0 0 145 0 145 145 0 145 0 0 -145z m2640 0
l0 -145 -145 0 -145 0 0 145 0 145 145 0 145 0 0 -145z"/>
<path d="M4700 7745 l0 -145 585 0 585 0 0 145 0 145 -585 0 -585 0 0 -145z"/>
<path d="M3820 6865 l0 -445 1465 0 1465 0 0 445 0 445 -1465 0 -1465 0 0
-445z m580 0 l0 -145 -145 0 -145 0 0 145 0 145 145 0 145 0 0 -145z m590 0
l0 -145 -145 0 -145 0 0 145 0 145 145 0 145 0 0 -145z m880 0 l0 -145 -295 0
-295 0 0 145 0 145 295 0 295 0 0 -145z m590 0 l0 -145 -150 0 -150 0 0 145 0
145 150 0 150 0 0 -145z"/>
<path d="M4400 5690 l0 -150 -145 0 -145 0 0 -145 0 -145 -145 0 -145 0 0
-585 0 -585 145 0 145 0 0 145 0 145 1025 0 1025 0 0 -145 0 -145 150 0 150 0
0 290 0 290 145 0 145 0 0 150 0 150 -145 0 -145 0 0 290 0 290 -150 0 -150 0
0 150 0 150 -880 0 -880 0 0 -150z m1180 -585 l0 -145 290 0 290 0 0 -150 0
-150 -440 0 -440 0 0 150 0 150 -145 0 -145 0 0 -150 0 -150 -295 0 -295 0 0
150 0 150 295 0 295 0 0 145 0 145 295 0 295 0 0 -145z"/>
<path d="M2640 4370 l0 -290 -145 0 -145 0 0 145 0 145 -150 0 -150 0 0 -295
0 -295 590 0 590 0 0 150 0 150 145 0 145 0 0 290 0 290 -145 0 -145 0 0 -145
0 -145 -150 0 -150 0 0 145 0 145 -145 0 -145 0 0 -290z"/>
<path d="M7040 4370 l0 -290 150 0 150 0 0 -150 0 -150 440 0 440 0 0 -145 0
-145 -590 0 -590 0 0 145 0 145 -585 0 -585 0 0 150 0 150 -295 0 -295 0 0
-295 0 -295 590 0 590 0 0 -145 0 -145 440 0 440 0 0 -150 0 -150 585 0 585 0
0 -145 0 -145 295 0 295 0 0 295 0 295 -440 0 -440 0 0 145 0 145 145 0 145 0
0 440 0 440 -145 0 -145 0 0 -145 0 -145 -150 0 -150 0 0 290 0 290 -145 0
-145 0 0 -145 0 -145 -145 0 -145 0 0 145 0 145 -150 0 -150 0 0 -290z"/>
<path d="M4400 3930 l0 -150 -440 0 -440 0 0 -145 0 -145 -585 0 -585 0 0
-145 0 -145 -440 0 -440 0 0 -295 0 -295 290 0 290 0 0 145 0 145 440 0 440 0
0 150 0 150 590 0 590 0 0 145 0 145 440 0 440 0 0 295 0 295 -295 0 -295 0 0
-150z"/>
</g>
</svg>
