<?xml version="1.0" standalone="no"?>
<!DOCTYPE svg PUBLIC "-//W3C//DTD SVG 20010904//EN"
 "http://www.w3.org/TR/2001/REC-SVG-20010904/DTD/svg10.dtd">
<svg version="1.0" xmlns="http://www.w3.org/2000/svg"
 width="1188.000000pt" height="1188.000000pt" viewBox="0 0 1188.000000 1188.000000"
 preserveAspectRatio="xMidYMid meet">
<metadata>
Created by potrace 1.14, written by Peter Selinger 2001-2017
</metadata>
<g transform="translate(0.000000,1188.000000) scale(0.100000,-0.100000)"
fill="#000000" stroke="none">
<path d="M2640 11220 l0 -660 -660 0 -660 0 0 -660 0 -660 -660 0 -660 0 0
-1980 0 -1980 660 0 660 0 0 -660 0 -660 660 0 660 0 0 -660 0 -660 660 0 660
0 0 -660 0 -660 660 0 660 0 0 -660 0 -660 660 0 660 0 0 660 0 660 660 0 660
0 0 660 0 660 660 0 660 0 0 660 0 660 660 0 660 0 0 660 0 660 660 0 660 0 0
1980 0 1980 -660 0 -660 0 0 660 0 660 -660 0 -660 0 0 660 0 660 -1320 0
-1320 0 0 -660 0 -660 -660 0 -660 0 0 660 0 660 -1320 0 -1320 0 0 -660z"/>
</g>
</svg>
